<svg width="194" height="50" viewBox="0 0 194 50" fill="none" xmlns="http://www.w3.org/2000/svg">
<path d="M15.0312 14.14L17.4267 7.30176L24.3162 10.4671L15.0312 14.1398V14.14Z" fill="#115FF9"/>
<path d="M10.3166 24.1926L6.69336 18.0998L13.9578 15.2109L10.3178 24.1926H10.3166Z" fill="#115FF9"/>
<path d="M14.2472 34.8211L7.06445 32.29L10.3475 25.5791L14.2472 34.8211Z" fill="#115FF9"/>
<path d="M17.7572 42.7819L15.2656 35.8135L24.354 39.3516L17.7578 42.7819H17.7572Z" fill="#115FF9"/>
<path d="M24.144 49.9994L15.6738 48.3014L17.692 43.7163L24.1442 49.999L24.144 49.9994Z" fill="#115FF9"/>
<path d="M17.3588 6.38595L15.3867 1.82365L24.1054 0.0146484L17.3588 6.38576V6.38595Z" fill="#115FF9"/>
<path d="M1.6591 34.101L0.078125 26.126L6.12932 32.3497L1.65852 34.1009L1.6591 34.101Z" fill="#115FF9"/>
<path d="M0.03125 24.28L1.59685 16.083L5.76555 18.0495L0.0314431 24.28H0.03125Z" fill="#115FF9"/>
<path d="M24.7761 10.0231L17.7793 6.80855L24.7761 0.200684V10.0237V10.0231Z" fill="#115FF9"/>
<path d="M24.7752 49.7833L18.0938 43.2774L24.7754 39.8027V49.7833H24.7752Z" fill="#115FF9"/>
<path d="M17.1639 42.8926L7.22373 42.5779L6.96484 32.8887L14.5404 35.5561L17.1637 42.8918L17.1639 42.8926Z" fill="#115FF9"/>
<path d="M15.1224 48.0767L7.94922 43.1963L17.1425 43.4874L15.1226 48.0766L15.1224 48.0767Z" fill="#115FF9"/>
<path d="M6.58223 17.5021L7.15528 7.48224L16.8284 7.20459L14.2784 14.4302L6.58203 17.5023L6.58223 17.5021Z" fill="#115FF9"/>
<path d="M7.87324 6.86576L14.8418 2.06494L16.8061 6.60973L7.87305 6.86616L7.87324 6.86576Z" fill="#115FF9"/>
<path d="M24.7763 38.8777L14.9987 35.071L10.6895 24.8582L14.7236 14.9063L24.7763 10.9258V38.8777Z" fill="#115FF9"/>
<path d="M6.60765 41.8296L1.88672 34.6522L6.36939 32.896L6.60804 41.8292L6.60765 41.8296Z" fill="#115FF9"/>
<path d="M6.57384 31.9528L0 25.1925L6.20711 18.4478L10.0293 24.8742L6.57384 31.9526V31.9528Z" fill="#115FF9"/>
<path d="M5.98704 17.4943L1.8125 15.5252L6.51338 8.29395L5.98782 17.4941L5.98704 17.4943Z" fill="#115FF9"/>
<path fill-rule="evenodd" clip-rule="evenodd" d="M27.5352 30.9971V32.36L52.1588 20.6973C52.081 20.2884 52.0031 19.8601 51.9058 19.4512L27.5352 30.9971Z" fill="#FF151C"/>
<path fill-rule="evenodd" clip-rule="evenodd" d="M27.5352 22.0602V28.8749L51.3802 17.5626C50.7629 15.596 49.9065 13.7128 48.8303 11.9551L27.5352 22.0602Z" fill="#FF151C"/>
<path fill-rule="evenodd" clip-rule="evenodd" d="M27.5352 19.2948V20.5409L48.0711 10.8057C47.857 10.4941 47.6234 10.1826 47.3898 9.87109L27.5352 19.2948Z" fill="#F5F5F5"/>
<path fill-rule="evenodd" clip-rule="evenodd" d="M27.5352 10.9422V16.5302L45.7353 7.90482C44.468 6.56144 43.0582 5.36017 41.5308 4.32227L27.5352 10.9422Z" fill="#115FF9"/>
<path fill-rule="evenodd" clip-rule="evenodd" d="M27.5352 0V7.34034L38.0854 2.33645C34.7796 0.801764 31.1797 0.00452687 27.5352 0Z" fill="#115FF9"/>
<path fill-rule="evenodd" clip-rule="evenodd" d="M27.5352 36.3126L52.5287 24.4746V25.0003C52.5287 38.7659 41.2972 50.0003 27.5352 50.0003V36.3126Z" fill="#009846"/>
<path fill-rule="evenodd" clip-rule="evenodd" d="M62.4844 10.1264H75.546V11.353H69.6309V22.2597H68.3654V11.353H62.4844V10.1264ZM76.9856 22.2597V10.1264H87.6912V11.353H78.2303V15.383H87.4571V16.6097H78.2303V21.0489H87.7112V22.2756H76.9856V22.2597ZM101.146 10.1297L96.0457 15.2697L90.9454 10.1297H89.3491L94.9551 15.8347L88.5318 22.2597H90.2056L96.0448 16.4189L101.884 22.2597H103.557L97.1337 15.8347L102.817 10.1297H101.146ZM105 22.2597V10.1264H106.266V15.3639H117.013V10.1264H118.278V22.2597H117.013V16.633H106.266V22.2597H105ZM133.011 14.2181C133.023 13.5828 132.924 12.9504 132.719 12.3489C132.636 12.1418 132.51 11.9548 132.349 11.8003C132.187 11.6459 131.995 11.5275 131.785 11.4531C131.169 11.2551 130.523 11.1704 129.877 11.203H124.562C123.935 11.1819 123.308 11.2742 122.713 11.4755C122.272 11.6423 121.91 11.9698 121.701 12.3922C121.442 12.96 121.316 13.5792 121.331 14.203V18.078C121.323 18.5654 121.389 19.0511 121.526 19.5189C121.626 19.8646 121.822 20.1751 122.091 20.4147C122.375 20.6427 122.708 20.8026 123.064 20.8822C123.557 20.9862 124.06 21.0321 124.563 21.0189H129.878C130.541 21.0459 131.205 20.9672 131.844 20.7855C132.044 20.7191 132.228 20.6102 132.382 20.4664C132.537 20.3227 132.659 20.1473 132.739 19.9522C132.939 19.3566 133.032 18.7302 133.012 18.1022V14.2272L133.011 14.2181ZM134.261 18.093C134.27 18.8074 134.191 19.5202 134.027 20.2155C133.915 20.6985 133.657 21.135 133.288 21.4655C132.912 21.7795 132.464 21.9938 131.984 22.0889C131.297 22.2189 130.599 22.2776 129.901 22.2639H124.587C123.887 22.2736 123.188 22.2017 122.505 22.0497C121.997 21.9247 121.524 21.685 121.123 21.3489C120.756 21.003 120.487 20.5663 120.344 20.083C120.158 19.4446 120.073 18.781 120.094 18.1164V14.3389C120.083 13.6619 120.168 12.9868 120.344 12.3331C120.473 11.8359 120.728 11.3801 121.083 11.0089C121.468 10.6471 121.936 10.3863 122.446 10.2497C123.146 10.0787 123.866 10.0003 124.587 10.0164H129.9C130.738 9.98773 131.575 10.1065 132.372 10.3672C132.991 10.6035 133.493 11.0712 133.773 11.6714C134.124 12.5152 134.29 13.4246 134.26 14.338V18.093H134.261ZM136.304 22.2597V10.1264H149.58V22.2597H148.315V11.3922H137.567V22.2597H136.304ZM152.013 22.2597H150.612L156.899 10.1297H158.826L165.114 22.2597H163.654L162.097 19.2222H153.562L152.005 22.2597H152.013ZM154.251 17.9955H161.454L157.853 11.0055L154.252 17.9955H154.251ZM166.339 22.2397V10.1264H174.514C175.348 10.0945 176.18 10.22 176.967 10.4964C177.55 10.7142 178.034 11.1361 178.329 11.6839C178.647 12.3651 178.794 13.1137 178.758 13.8647C178.803 14.5788 178.655 15.2919 178.329 15.9289C178.037 16.4258 177.562 16.789 177.005 16.9414C176.194 17.162 175.354 17.2603 174.514 17.233H167.584V22.233L166.339 22.2397ZM167.589 16.0089H174.889C175.419 16.0219 175.948 15.9696 176.466 15.8531C176.635 15.8106 176.793 15.7332 176.931 15.6259C177.068 15.5185 177.182 15.3836 177.264 15.2297C177.443 14.7985 177.522 14.3326 177.497 13.8664C177.575 13.5223 177.564 13.1642 177.467 12.8251C177.37 12.4861 177.188 12.1771 176.94 11.9267C176.692 11.6763 176.384 11.4926 176.046 11.3926C175.708 11.2926 175.35 11.2796 175.005 11.3547H167.59V16.0097L167.589 16.0089ZM180.335 22.2589V10.1264H181.601V15.1264H183.625L191.859 10.1264H194L184.948 15.6556L193.922 22.2564H191.762L183.664 16.3572H181.6V22.2597L180.335 22.2589Z" fill="#222222"/>
<path fill-rule="evenodd" clip-rule="evenodd" d="M73.9691 30.1614V33.8606H67.9932C67.7534 33.8855 67.511 33.8584 67.2825 33.7812C67.0541 33.704 66.845 33.5784 66.6694 33.4131C66.3608 33.0059 66.2088 32.5013 66.2412 31.9914C66.198 31.4918 66.3213 30.9919 66.5919 30.5698C66.7645 30.4071 66.9708 30.2843 67.1961 30.2103C67.4214 30.1363 67.6603 30.1128 67.8957 30.1414H73.9691V30.1614ZM76.8692 27.8639H67.6625C66.8802 27.8389 66.1004 27.9645 65.3656 28.2339C64.7359 28.4836 64.2128 28.9447 63.886 29.5381C63.4972 30.3436 63.3165 31.2338 63.3603 32.1273C63.3532 32.7063 63.4797 33.2793 63.7302 33.8014C63.9611 34.2986 64.3005 34.7376 64.7232 35.0864C65.1023 35.407 65.5475 35.6398 66.0271 35.7681L62.4863 39.9948H66.2628L69.1629 36.1614H73.9708V39.9948H76.8709V27.8614L76.8692 27.8639ZM78.7188 39.9939V27.8614H81.5997V32.3789H83.3143L88.6087 27.8614H92.9493L85.8053 33.5464L93.22 39.9914H88.9794L83.3734 34.7931H81.6022V39.9948H78.7213L78.7188 39.9939ZM104.975 27.8614H108.42L102.775 36.9739C102.308 37.6939 101.942 38.2398 101.646 38.6289C101.4 38.9578 101.105 39.2467 100.771 39.4856C100.477 39.6826 100.146 39.8153 99.7975 39.8747C99.3271 39.9456 98.8518 39.9782 98.3762 39.9723H97.2473V37.6748H97.8305C98.9402 37.6748 99.5042 37.4248 99.5042 36.9348C99.4818 36.7313 99.4081 36.5369 99.2901 36.3698L93.684 27.8223H97.1098L101.159 34.6556L104.974 27.8606L104.975 27.8614ZM109.474 27.8614H122.554V30.2781H117.435V39.9948H114.534V30.2756H109.474V27.8589V27.8614ZM139.529 39.9948V27.8614H134.663L127.265 37.5781H126.856V27.8614H123.956V39.9948H128.939L136.219 30.2789H136.628V39.9948H139.529ZM152.512 30.1614V33.8606H146.536C146.297 33.8849 146.055 33.8574 145.827 33.7799C145.599 33.7024 145.39 33.5767 145.215 33.4114C144.906 33.0043 144.754 32.4997 144.787 31.9898C144.743 31.4901 144.867 30.9903 145.137 30.5681C145.31 30.4054 145.516 30.2827 145.742 30.2086C145.967 30.1346 146.206 30.1111 146.441 30.1398H152.515L152.512 30.1614ZM155.412 27.8639H146.205C145.423 27.8389 144.643 27.9645 143.909 28.2339C143.279 28.4836 142.756 28.9447 142.429 29.5381C142.04 30.3436 141.859 31.2338 141.903 32.1273C141.896 32.7063 142.023 33.2793 142.273 33.8014C142.504 34.2985 142.843 34.7376 143.266 35.0864C143.645 35.407 144.091 35.6398 144.57 35.7681L141.028 39.9931H144.804L147.704 36.1598H152.512V39.9931H155.412V27.8614V27.8639Z" fill="#222222"/>
</svg>
